Coordinates
version=1
nRows=8
nColumns=40
inDegrees=yes

Units are S.I. units (second, meters, Newtons, ...)
If the header above contains a line with 'inDegrees', this indicates whether rotational values are in degrees (yes) or radians (no).

endheader
time	pelvis_tilt	pelvis_list	pelvis_rotation	pelvis_tx	pelvis_ty	pelvis_tz	hip_flexion_r	hip_adduction_r	hip_rotation_r	knee_angle_r	knee_angle_r_beta	ankle_angle_r	subtalar_angle_r	mtp_angle_r	hip_flexion_l	hip_adduction_l	hip_rotation_l	knee_angle_l	knee_angle_l_beta	ankle_angle_l	subtalar_angle_l	mtp_angle_l	lumbar_extension	lumbar_bending	lumbar_rotation	arm_flex_r	arm_add_r	arm_rot_r	elbow_flex_r	pro_sup_r	wrist_flex_r	wrist_dev_r	arm_flex_l	arm_add_l	arm_rot_l	elbow_flex_l	pro_sup_l	wrist_flex_l	wrist_dev_l
      0.35000000	     10.60993196	      1.58036419	     -9.19048513	     -0.71256821	      0.96619424	      0.27129080	     12.99176270	     -1.65033573	      6.84546335	     57.86676115	      1.00996551	      7.21445340	      0.00000000	      0.00000000	    -11.57050966	      7.95803782	     -1.37384508	      4.44499410	      0.07757978	      5.21938659	      0.00000000	      0.00000000	    -26.66893437	     -5.52516735	      2.35864688	     -0.38960096	      1.65698247	    -27.96017939	     42.38846383	     88.87281896	    -12.72467318	      7.21685559	      3.62049946	     -1.14090075	    -22.58916183	     44.61455552	     89.27784536	    -20.09275366	      4.33380991
      0.36000000	     10.59973059	      1.30847688	     -8.33900454	     -0.70159285	      0.96622063	      0.27022145	     13.47299513	     -1.55912388	      5.81673679	     55.17304010	      0.96295121	      7.85632845	      0.00000000	      0.00000000	    -12.28464659	      7.64320950	     -0.69791239	      4.58052303	      0.07994521	      5.87956935	      0.00000000	      0.00000000	    -26.78870014	     -4.84449797	      2.37391829	     -1.00149602	      1.80168386	    -28.63889901	     42.40481503	     88.88478254	    -12.46926917	      7.24285696	      4.88591060	     -1.06386572	    -21.29720293	     45.63123619	     89.28195862	    -19.71588884	      4.54097026
      0.37000000	     10.43178392	      1.22620091	     -7.89214937	     -0.69070896	      0.96566246	      0.26976528	     14.19737579	     -1.53150365	      5.20836238	     52.46940954	      0.91576395	      8.40582670	      0.00000000	      0.00000000	    -12.79739195	      7.56088176	     -0.54576211	      4.65939759	      0.08132183	      6.29228068	      0.00000000	      0.00000000	    -26.69238841	     -4.51067553	      2.35999511	     -1.38761736	      1.95996096	    -29.04409985	     42.16336753	     88.88413216	    -12.39461435	      7.30969221	      5.86430375	     -0.98914336	    -20.23852478	     46.97974951	     89.28304643	    -19.40915652	      4.49953914
      0.38000000	     10.85123921	      0.78133544	     -6.63121953	     -0.67950996	      0.96602651	      0.26829991	     13.85590554	     -1.50709148	      3.40756460	     49.13760500	      0.85761299	      8.52268961	      0.00000000	      0.00000000	    -14.05793494	      6.99539802	      0.62442790	      4.70401481	      0.08210055	      7.04663069	      0.00000000	      0.00000000	    -27.26869263	     -3.54211355	      2.42807758	     -2.25287696	      2.24254452	    -30.32038012	     42.60117123	     88.88002081	    -11.85976413	      7.25447208	      7.38464475	     -0.86876332	    -18.54347764	     47.67785561	     89.28947925	    -18.52325307	      5.05758072
      0.39000000	     10.59749826	      1.05109403	     -6.56995534	     -0.66836763	      0.96472310	      0.26847447	     14.65925060	     -1.76239873	      3.06150070	     46.24675902	      0.80715821	      8.58302942	      0.00000000	      0.00000000	    -14.50429102	      7.32929207	      0.51671903	      4.66770734	      0.08146686	      7.42673312	      0.00000000	      0.00000000	    -26.90395538	     -3.70767049	      2.46377795	     -2.64215365	      2.42656887	    -30.51794367	     42.33825548	     88.87214574	    -11.84993372	      7.34336221	      8.22464610	     -0.71417477	    -17.91799503	     48.92382256	     89.29944624	    -18.32909871	      4.92609623
      0.40000000	     11.37850870	      0.24847969	     -5.05059417	     -0.65693977	      0.96533705	      0.26696722	     13.55756910	     -1.43608717	      0.58613022	     42.38761271	      0.73980340	      8.52016484	      0.00000000	      0.00000000	    -16.20276938	      6.27566049	      1.72619197	      4.70934287	      0.08219354	      8.27451530	      0.00000000	      0.00000000	    -27.90405199	     -2.33272995	      2.48891581	     -3.46010911	      2.76926467	    -31.95907674	     42.77023758	     88.85368577	    -11.20335287	      7.18547171	      9.69693718	     -0.61911511	    -15.85971535	     49.68450970	     89.28959605	    -16.94779521	      5.52506776
      0.41000000	     11.54705222	     -0.03576335	     -4.51478183	     -0.64552430	      0.96452770	      0.26674805	     13.42476357	     -1.24208351	     -0.68164968	     38.84435202	      0.67796184	      8.36047906	      0.00000000	      0.00000000	    -17.16182883	      5.91749891	      1.88200096	      4.73574468	      0.08265434	      8.98553953	      0.00000000	      0.00000000	    -28.06019296	     -1.81658539	      2.54086104	     -3.92221384	      2.98526497	    -32.52889739	     42.64421480	     88.83632827	    -10.92948157	      7.17995191	     10.63983380	     -0.53551090	    -14.59037599	     50.76132565	     89.28465499	    -16.17715973	      5.66108735
      0.42000000	     12.03979431	     -0.32562620	     -3.77338429	     -0.63422223	      0.96409950	      0.26649812	     12.80018459	     -1.05488988	     -2.22574151	     35.10555342	      0.61270749	      7.87645924	      0.00000000	      0.00000000	    -18.50652960	      5.47720507	      2.38146401	      4.65488926	      0.08124314	      9.48583474	      0.00000000	      0.00000000	    -28.61289771	     -1.26655119	      2.62966723	     -4.48025236	      3.31623948	    -33.38775728	     42.78570469	     88.80898977	    -10.54813283	      7.04278215	     11.76279505	     -0.38433906	    -13.34732443	     51.76341481	     89.29099430	    -15.03727704	      5.93389787
